<?xml version="1.0" encoding="UTF-8"?>
<svg version="1.1" xmlns="http://www.w3.org/2000/svg" width="45" height="36">
<path d="M0 0 C0.99 0.33 1.98 0.66 3 1 C1.67785397 6.61912061 -2.34564514 9.10200546 -7 12 C-15.50460746 15.88253819 -25.16649655 15.60297594 -34 13 C-36.44105088 11.87041567 -37.93648482 10.79200002 -40 9 C-40.33 8.01 -40.66 7.02 -41 6 C-37.69021335 4.89673778 -36.92786342 5.12864177 -33.6875 6 C-22.0958697 8.44300348 -11.56499315 5.98762037 -1 1 C-0.67 0.67 -0.34 0.34 0 0 Z " fill="#C170FF" transform="translate(41,19)"/>
<path d="M0 0 C0.804375 0.144375 1.60875 0.28875 2.4375 0.4375 C4.89166273 4.1187441 5.03134154 7.16011963 4.4375 11.4375 C2.9375 13.9375 2.9375 13.9375 1.4375 15.4375 C-0.9375 15.125 -0.9375 15.125 -3.5625 14.4375 C-6.03592266 10.72736601 -5.94753486 8.82689738 -5.5625 4.4375 C-4.0564913 1.34621898 -3.41084119 0.58233874 0 0 Z " fill="#C270FF" transform="translate(33.5625,-0.4375)"/>
<path d="M0 0 C2.4375 -0.4375 2.4375 -0.4375 5 0 C7.52222236 2.2613028 7.96098598 3.62546543 8.3125 7 C8.00425664 9.95913623 7.82268139 11.6565525 6 14 C3.5625 14.9375 3.5625 14.9375 1 15 C-1.15439873 13.40471904 -1.91380404 12.5116147 -2.36328125 9.84375 C-2.34652344 9.0703125 -2.32976563 8.296875 -2.3125 7.5 C-2.30863281 6.7265625 -2.30476562 5.953125 -2.30078125 5.15625 C-2 3 -2 3 0 0 Z " fill="#C170FF" transform="translate(8,0)"/>
</svg>
